# xmcd
#
# Track frame offsets:
#	225
#	16023
#	35148
#	50206
#	63153
#	86933
#	106418
#	125684
#	139756
#	164793
#	184237
#	211678
#
# Disc length: 3013 seconds
#
# Revision: 1
# Processed by: cddbd v1.5.2PL0 Copyright (c) Steve Scherf et al.
# Submitted via: audiograbber 1.83.01
#
DISCID=b30bc20c
DTITLE=Hillstomp - After Two But Before Five
DYEAR=2007
DGENRE=Blues
TTITLE0=Goin' Down South
TTITLE1=NE Portland 3am
TTITLE2=Mr. Charlie III
TTITLE3=Lucey's Lament
TTITLE4=Dark Cloud a-Risin'
TTITLE5=Roustabout
TTITLE6=Rollin' and Tumblin'
TTITLE7=Poor Black Mattie
TTITLE8=You Done Told Everybody
TTITLE9=Shake 'em On Down
TTITLE10=Landlord Blues
TTITLE11=Stewball
EXTD=
EXTT0=
EXTT1=
EXTT2=
EXTT3=
EXTT4=
EXTT5=
EXTT6=
EXTT7=
EXTT8=
EXTT9=
EXTT10=
EXTT11=
PLAYORDER=
